<svg width="51" height="51" viewBox="0 0 51 51" fill="none" xmlns="http://www.w3.org/2000/svg">
<g id="Group 1000002691">
<rect id="Rectangle 101" width="51" height="51" rx="5" fill="#FFD400"/>
<g id="Group 43">
<path id="Vector" d="M36.4297 10H41.0011V14.5714H36.4297V10Z" fill="#251C1C"/>
<path id="Vector_2" d="M36.4297 16.8574H41.0011V21.4289H36.4297V16.8574Z" fill="#251C1C"/>
<path id="Vector_3" d="M29.5703 10H34.1417V14.5714H29.5703V10Z" fill="#251C1C"/>
<path id="Vector_4" d="M29.5703 16.8574H34.1417V21.4289H29.5703V16.8574Z" fill="#251C1C"/>
<path id="Vector_5" d="M38.7143 25.9999V32.8571H11.2857V14.5714H25V12.2856H11.2857C10.6795 12.2856 10.0981 12.5265 9.66947 12.9551C9.24082 13.3838 9 13.9651 9 14.5714V32.8571C9 33.4633 9.24082 34.0447 9.66947 34.4733C10.0981 34.902 10.6795 35.1428 11.2857 35.1428H20.4286V39.7142H15.8571V41.9999H34.1429V39.7142H29.5714V35.1428H38.7143C39.3205 35.1428 39.9019 34.902 40.3305 34.4733C40.7592 34.0447 41 33.4633 41 32.8571V25.9999H38.7143ZM27.2857 39.7142H22.7143V35.1428H27.2857V39.7142Z" fill="#251C1C"/>
</g>
</g>
</svg>
