<svg width="51" height="51" viewBox="0 0 51 51" fill="none" xmlns="http://www.w3.org/2000/svg">
<g id="Group 1000002691">
<rect id="Rectangle 101" width="51" height="51" rx="5" fill="#00A4EF"/>
<g id="Group 679">
<path id="Vector" d="M23.1713 40.9907C22.5939 40.8206 22.0104 40.6497 21.433 40.4796C21.324 40.4439 21.2151 40.4082 21.1069 40.366C20.7283 40.2183 20.5447 39.8675 20.6567 39.5201C20.7757 39.1671 21.1144 39.0247 21.4994 39.1204C22.4757 39.375 23.4533 39.7224 24.4472 39.8341C30.2684 40.4834 35.0186 38.3712 38.3199 33.3434C41.699 28.1946 41.7925 22.6731 39.0494 17.0692C39.0049 16.9702 38.9464 16.8823 38.9203 16.8388C38.4451 16.8622 38.0006 16.943 37.5667 16.8864C36.4004 16.743 35.4896 15.7507 35.3257 14.5232C35.1655 13.3162 35.7884 12.1438 36.8442 11.6495C37.9071 11.1496 39.171 11.4725 39.9287 12.4293C40.6756 13.3713 40.7555 14.7188 40.0908 15.7197C39.9359 15.9551 39.9423 16.1081 40.0706 16.345C41.614 19.2084 42.307 22.2785 42.1504 25.549C42.1446 25.6473 42.1581 25.7419 42.1655 25.8356C42.0832 26.5047 42.0001 27.1804 41.9178 27.8495C41.7285 28.5692 41.557 29.2981 41.3368 30.0133C39.3462 36.4687 33.4162 41.1071 26.9518 41.2833C26.3513 41.3017 25.7493 41.2802 25.1512 41.279C24.4891 41.1826 23.8333 41.0871 23.1713 40.9907ZM37.7621 15.6055C38.5115 15.708 39.1907 15.1522 39.2866 14.3726C39.3825 13.593 38.8491 12.8607 38.1075 12.746C37.3526 12.6361 36.6602 13.1966 36.5681 13.9966C36.4776 14.7836 37.0126 15.5029 37.7621 15.6055Z" fill="#251C1C"/>
<path id="Vector_2" d="M29.2359 8.01385C29.8144 8.18408 30.3992 8.35521 30.9777 8.52544C31.0753 8.55288 31.1775 8.59422 31.2742 8.62816C31.6652 8.7843 31.8284 9.09907 31.7193 9.4734C31.6117 9.83472 31.2794 9.97151 30.8882 9.86825C29.879 9.60884 28.8707 9.29005 27.8408 9.14669C22.0724 8.33311 16.1727 11.4092 13.3783 16.7364C10.7478 21.7569 10.7903 26.8491 13.3425 31.9563C13.3779 32.0276 13.4141 32.0924 13.4503 32.1572C13.4603 32.1785 13.4773 32.1942 13.4557 32.1646C13.9318 32.1413 14.3771 32.0607 14.8057 32.1164C15.9681 32.2593 16.8925 33.2603 17.0524 34.4741C17.2131 35.6814 16.5885 36.8603 15.5315 37.3479C14.4419 37.844 13.2057 37.5317 12.4463 36.5745C11.6977 35.6322 11.6182 34.278 12.2832 33.2835C12.4383 33.0482 12.4257 32.8942 12.2971 32.6572C10.7625 29.7948 10.0674 26.724 10.2229 23.4595C10.2286 23.3612 10.215 23.2666 10.2084 23.1664C10.2907 22.4972 10.3739 21.8215 10.4562 21.1522C10.4852 21.0705 10.5142 20.9887 10.5369 20.9061C10.7366 20.1547 10.9007 19.3849 11.1492 18.6473C13.2128 12.3869 19.1256 7.8709 25.448 7.72018C26.049 7.70848 26.6529 7.72367 27.2522 7.72497C27.9155 7.82156 28.5726 7.91726 29.2359 8.01385ZM14.6412 33.402C13.8919 33.2863 13.2007 33.8272 13.0916 34.6116C12.9817 35.4025 13.5271 36.1499 14.2834 36.26C15.0281 36.3619 15.7139 35.8136 15.8168 35.0283C15.9135 34.2421 15.3905 33.5178 14.6412 33.402Z" fill="#251C1C"/>
<path id="Vector_3" d="M18.2477 18.3846C18.0749 18.1503 17.8405 17.8531 17.6201 17.5445C17.3084 17.1079 17.3508 16.7633 17.7641 16.4255C18.7245 15.6346 19.6912 14.8446 20.664 14.0554C21.0835 13.7186 21.3984 13.7711 21.727 14.2237C21.9321 14.5031 22.1363 14.7892 22.3414 15.0686C22.3521 15.0837 22.3761 15.0939 22.3298 15.0602C23.1303 14.853 23.8911 14.6603 24.6412 14.4525C24.7266 14.4245 24.8366 14.2988 24.8542 14.207C24.9205 13.8726 24.9381 13.5244 24.9929 13.1817C25.0574 12.7594 25.319 12.5277 25.7152 12.5854C26.9849 12.7635 28.2538 12.9483 29.5218 13.1397C29.9304 13.1992 30.1268 13.4976 30.0845 13.9434C30.05 14.2756 30.0092 14.6069 29.9623 14.9374C29.9357 15.1021 29.9755 15.1888 30.1291 15.2719C30.8058 15.6605 31.474 16.0681 32.2193 16.5139C32.4311 16.3289 32.7075 16.0791 32.9947 15.8444C33.401 15.5123 33.729 15.5601 34.0416 15.9901C34.7887 17.0364 35.5357 18.0828 36.2828 19.1291C36.5838 19.5507 36.5344 19.901 36.1421 20.2216C35.855 20.4563 35.557 20.6759 35.3275 20.8516C35.531 21.7581 35.7134 22.5806 35.9097 23.3916C35.9309 23.4756 36.0511 23.5741 36.1378 23.5867C36.4448 23.6516 36.7567 23.6768 37.0654 23.7285C37.4979 23.7982 37.7083 24.0852 37.6513 24.549C37.4928 25.8885 37.329 27.2203 37.1582 28.558C37.1003 29.0284 36.8411 29.2402 36.4 29.1895C36.0897 29.1511 35.7827 29.0861 35.4699 29.0675C35.3763 29.0607 35.2349 29.1345 35.1871 29.2152C34.8025 29.9349 34.4294 30.663 34.0078 31.4784C34.1814 31.7061 34.4228 31.9975 34.6431 32.3062C34.9441 32.7277 34.9009 33.0789 34.5149 33.4004C33.5412 34.1962 32.5675 34.9919 31.5939 35.7877C31.1876 36.1197 30.8666 36.0662 30.5478 35.6354C30.3705 35.3869 30.2009 35.1262 30.0087 34.8958C29.948 34.8263 29.8027 34.7782 29.712 34.7987C29.0154 34.9805 28.3235 35.1765 27.636 35.3867C27.5445 35.4138 27.4354 35.5328 27.4178 35.6247C27.3514 35.959 27.3276 36.3063 27.279 36.65C27.2145 37.0723 26.9537 37.2973 26.5567 37.2463C25.287 37.0681 24.0182 36.8833 22.7501 36.6919C22.3416 36.6324 22.1451 36.334 22.1874 35.8883C22.2219 35.556 22.2813 35.2274 22.3034 34.8934C22.3087 34.7997 22.2577 34.6507 22.1875 34.6067C21.5016 34.1898 20.8079 33.7853 20.0378 33.3359C19.826 33.5209 19.5488 33.7773 19.2616 34.012C18.8693 34.3326 18.5483 34.2791 18.2411 33.8567C17.4878 32.8094 16.7399 31.7697 15.9998 30.7176C15.6935 30.2885 15.7429 29.9382 16.15 29.5996C16.4302 29.3706 16.7203 29.1632 16.9428 28.9933C16.7393 28.0868 16.5569 27.2643 16.3605 26.4533C16.3394 26.3693 16.2192 26.2709 16.1333 26.2516C15.8263 26.1867 15.5144 26.1615 15.2057 26.1098C14.767 26.0392 14.562 25.7597 14.619 25.2959C14.7775 23.9565 14.9413 22.6246 15.1121 21.287C15.1708 20.8099 15.4424 20.5998 15.895 20.659C16.2053 20.6975 16.5124 20.7624 16.8251 20.781C16.9064 20.7861 17.0354 20.7104 17.0761 20.6354C17.4662 19.9233 17.8339 19.1877 18.2477 18.3846ZM15.9435 24.875C16.1292 24.902 16.284 24.9245 16.4387 24.9471C16.5934 24.9696 16.749 24.9855 16.9029 25.0147C17.3098 25.0874 17.4937 25.2828 17.5352 25.7138C17.6363 26.7875 17.8878 27.8156 18.3093 28.7943C18.4712 29.1687 18.399 29.4482 18.09 29.7067C17.837 29.9194 17.5687 30.1029 17.3181 30.2958C17.8825 31.0862 18.4084 31.8305 18.9773 32.6351C19.1977 32.4311 19.4329 32.2091 19.6781 32.0087C20.0291 31.7158 20.287 31.7196 20.6328 32.0331C21.3822 32.702 22.22 33.2153 23.1315 33.5908C23.5509 33.7666 23.6804 33.9945 23.6287 34.4659C23.595 34.7915 23.548 35.1219 23.5065 35.4598C24.3916 35.5887 25.2458 35.7131 26.0876 35.8357C26.104 35.8044 26.1251 35.7872 26.1275 35.7673C26.172 35.4568 26.2095 35.152 26.2478 34.8405C26.3102 34.3842 26.4919 34.1881 26.9134 34.1416C27.903 34.0361 28.8486 33.7758 29.7596 33.3352C30.1348 33.1538 30.3907 33.2247 30.6371 33.5776C30.8298 33.8553 31.0023 34.1434 31.161 34.3892C31.9114 33.77 32.5986 33.2023 33.3201 32.6126C33.1465 32.385 32.9382 32.1321 32.7509 31.862C32.4937 31.494 32.4962 31.2178 32.7663 30.866C33.3885 30.0595 33.8632 29.1708 34.2153 28.2036C34.3878 27.7228 34.5923 27.5975 35.0821 27.6621C35.3792 27.7053 35.6701 27.7477 35.9672 27.791C36.0854 26.8301 36.197 25.9223 36.3128 24.9814C35.9785 24.9327 35.662 24.8934 35.341 24.8399C34.9518 24.7765 34.7618 24.5802 34.7248 24.1633C34.6238 23.0897 34.3722 22.0615 33.9577 21.0771C33.7921 20.682 33.8581 20.4016 34.1803 20.1382C34.4325 19.9321 34.7078 19.7429 34.9575 19.5567C34.3816 18.7578 33.8487 18.0192 33.2836 17.2354C33.0648 17.4261 32.8295 17.6482 32.5844 17.8486C32.2271 18.1405 31.9825 18.1319 31.6297 17.8242C30.8849 17.1694 30.0664 16.6523 29.1603 16.2842C28.6983 16.0955 28.5821 15.8628 28.6419 15.3251C28.6802 15.0137 28.7193 14.6956 28.7568 14.3908C27.8531 14.2592 27.0051 14.1357 26.1571 14.0122C26.139 14.0568 26.1304 14.0758 26.128 14.0957C26.0913 14.3939 26.0546 14.692 26.0117 14.9893C25.9444 15.4854 25.7776 15.6635 25.3111 15.7169C24.3409 15.8185 23.4139 16.0814 22.523 16.5115C22.1207 16.7092 21.8772 16.6401 21.6039 16.2495C21.4157 15.986 21.2487 15.7054 21.0899 15.4597C20.3474 16.0665 19.6547 16.6267 18.9254 17.2287C19.1151 17.4789 19.3226 17.7385 19.5215 18.017C19.7687 18.3633 19.7654 18.6461 19.5032 18.9856C18.8732 19.8044 18.3828 20.7178 18.0275 21.7115C17.8825 22.1221 17.6578 22.258 17.2547 22.206C16.9382 22.1667 16.6233 22.1141 16.2891 22.0654C16.1725 23.013 16.0601 23.9274 15.9435 24.875Z" fill="#251C1C"/>
<path id="Vector_4" d="M18.9802 35.9741C19.314 36.0287 19.5693 36.3628 19.5105 36.6874C19.4523 37.0061 19.1436 37.2095 18.8098 37.1548C18.4636 37.0984 18.2247 36.7849 18.2843 36.4543C18.3362 36.1347 18.6526 35.9203 18.9802 35.9741Z" fill="#251C1C"/>
<path id="Vector_5" d="M33.0127 10.9374C33.0653 10.6119 33.3679 10.4075 33.7071 10.4691C34.0409 10.5237 34.2806 10.8312 34.2348 11.1517C34.1876 11.4841 33.8512 11.7077 33.5126 11.6403C33.1741 11.5728 32.9593 11.2689 33.0127 10.9374Z" fill="#251C1C"/>
<path id="Vector_6" d="M25.4711 30.321C22.639 29.9086 20.623 27.0432 21.0023 23.9598C21.3815 20.8764 24.0136 18.681 26.8519 19.0944C29.684 19.5068 31.7 22.3721 31.3207 25.4556C30.9415 28.539 28.3102 30.7275 25.4711 30.321ZM22.249 24.1483C21.9679 26.4855 23.5039 28.6588 25.6444 28.9636C27.7911 29.2693 29.7874 27.5966 30.0677 25.2662C30.3489 22.9289 28.8129 20.7557 26.6724 20.4509C24.5319 20.1461 22.5293 21.8178 22.249 24.1483Z" fill="#251C1C"/>
</g>
</g>
</svg>
