<svg width="42" height="45" viewBox="0 0 42 45" fill="none" xmlns="http://www.w3.org/2000/svg">
<path id="Vector" d="M40.1356 15.7284L27.7019 13.6906L22.1437 0.983045C21.9919 0.63512 21.7421 0.353467 21.4336 0.182266C20.6598 -0.248497 19.7196 0.110473 19.3327 0.983045L13.7745 13.6906L1.34075 15.7284C0.997954 15.7836 0.684539 15.9659 0.444581 16.242C0.154485 16.5783 -0.00537168 17.0306 0.000137834 17.4997C0.00564734 17.9688 0.176072 18.4163 0.473963 18.7437L9.46995 28.6347L7.3446 42.6014C7.29476 42.9263 7.32665 43.2605 7.43663 43.566C7.54662 43.8715 7.73031 44.1361 7.96687 44.3299C8.20344 44.5236 8.48341 44.6387 8.77505 44.6622C9.06668 44.6856 9.35831 44.6165 9.61686 44.4625L20.7382 37.8685L31.8595 44.4625C32.1631 44.6448 32.5157 44.7055 32.8536 44.6393C33.7057 44.4736 34.2787 43.5623 34.1318 42.6014L32.0064 28.6347L41.0024 18.7437C41.2473 18.4731 41.4089 18.1197 41.4579 17.7331C41.5901 16.7667 40.9926 15.872 40.1356 15.7284Z" fill="#FFD400"/>
</svg>
